<svg width="76" height="76" viewBox="0 0 76 76" fill="none" xmlns="http://www.w3.org/2000/svg">
<path d="M12.9022 9.4804C13.0866 6.21845 13.8658 4.79998 16.1003 3.6609C18.5046 2.43489 22.2967 3.00543 26.7587 5.26497C28.6807 6.23866 28.8764 6.25848 32.2445 5.82664C36.7216 5.25243 42.4852 5.25446 46.6174 5.8319C49.7423 6.26858 49.9475 6.24676 51.8741 5.27105C58.2077 2.06369 63.2082 2.27355 65.0189 5.82259C65.9227 7.59409 66.0905 12.1908 65.3897 15.982C65.0012 18.0839 65.0423 18.3463 65.9784 19.7256C72.5641 29.4306 67.8189 45.1618 56.5338 51.0325C55.6703 51.4818 54.9426 51.7598 54.3495 51.9863C52.5283 52.6817 51.9754 52.8929 52.6449 56.0937C52.9672 57.6334 53.3555 61.4612 53.5081 64.6007C53.7839 70.2753 53.7798 70.3149 52.7845 71.4726C51.4298 73.0474 49.4772 73.074 48.1542 71.5357C47.2913 70.5325 47.2071 70.0587 47.2071 66.1881C47.2071 60.4682 46.5801 56.6663 45.0987 53.4084C43.3371 49.5315 44.643 48.0859 48.6716 47.2195C54.2712 46.0149 58.6447 42.5591 61.0824 37.4129C63.4001 32.5211 63.7494 25.7609 59.5593 21.6495C58.3677 20.2335 58.2847 18.9508 59.1356 15.0832C59.4535 13.6376 59.7201 11.7727 59.7281 10.9385C59.7401 9.6211 59.6201 9.42217 58.811 9.42217C58.2989 9.42217 56.3426 10.167 54.4641 11.0772L51.4659 12.5304C51.1932 12.6625 50.8883 12.7133 50.5875 12.6787C42.9637 11.8037 35.7196 11.7901 28.0586 12.6822C27.7566 12.7173 27.4503 12.6665 27.1768 12.5338L24.1802 11.0796C22.3015 10.1678 20.3452 9.42217 19.8333 9.42217C18.6498 9.42217 18.632 10.296 19.7108 15.4875C20.3698 18.6581 20.8133 19.3646 18.9082 21.8998C16.0526 25.6999 15.3393 30.4188 16.8706 35.3768C18.8006 41.6246 23.5267 45.8455 30.1711 47.2537C34.1765 48.1027 35.2234 49.2104 33.6939 53.8033C32.49 57.4177 31.7287 58.3493 29.979 58.3493C27.6249 58.3493 26.1502 56.31 26.9617 54.176C27.3192 53.2355 27.2128 53.1351 25.0075 52.3308C18.2753 49.8763 13.1262 44.3749 10.7721 37.1207C8.95248 31.5142 9.75311 24.2168 12.6722 19.806C13.6661 18.3043 13.6815 18.1769 13.2176 15.3019C12.9552 13.6744 12.8133 11.055 12.9022 9.4804Z" fill="white"/>
<path d="M10.5513 50.4938C9.58122 49.0387 7.61513 48.6454 6.15995 49.6156C4.70481 50.5856 4.31157 52.5518 5.28168 54.0069C5.99788 55.0813 6.85469 55.9639 7.58229 56.6912C7.71643 56.8255 7.84677 56.955 7.97404 57.0814C8.58353 57.6868 9.12167 58.2214 9.66216 58.856C10.8576 60.2591 12.0502 62.149 12.728 65.538C13.0299 67.0475 14.115 67.8607 14.7162 68.216C15.3682 68.6011 16.0806 68.8281 16.6669 68.976C17.8661 69.2784 19.3219 69.4355 20.7035 69.527C22.2202 69.6277 23.8636 69.6603 25.3332 69.6692C25.3343 71.4169 26.7516 72.8336 28.4998 72.8336C30.2488 72.8336 31.6665 71.4159 31.6665 69.667V66.5003C31.6665 64.7514 30.2488 63.3336 28.4998 63.3336C28.2013 63.3336 27.8783 63.3346 27.5363 63.3359C25.6779 63.3416 23.2555 63.3488 21.1221 63.2076C20.0934 63.1395 19.2477 63.0429 18.6275 62.9248C17.6725 59.1758 16.1297 56.6814 14.4834 54.7488C13.7556 53.8948 13.002 53.1474 12.389 52.5394C12.2743 52.4257 12.1645 52.3168 12.0606 52.2129C11.3534 51.5058 10.8907 51.003 10.5513 50.4938Z" fill="white"/>
</svg>
