<svg width="81" height="75" viewBox="0 0 81 75" fill="none" xmlns="http://www.w3.org/2000/svg">
<path fill-rule="evenodd" clip-rule="evenodd" d="M40.5 56.25C51.6837 56.25 60.75 47.8553 60.75 37.5C60.75 27.1447 51.6837 18.75 40.5 18.75C29.3162 18.75 20.25 27.1447 20.25 37.5C20.25 47.8553 29.3162 56.25 40.5 56.25ZM40.5 50C47.9557 50 54 44.4034 54 37.5C54 30.5964 47.9557 25 40.5 25C33.0442 25 27 30.5964 27 37.5C27 44.4034 33.0442 50 40.5 50Z" fill="white"/>
<path d="M60.75 15.625C58.886 15.625 57.375 17.0241 57.375 18.75C57.375 20.4759 58.886 21.875 60.75 21.875C62.614 21.875 64.125 20.4759 64.125 18.75C64.125 17.0241 62.614 15.625 60.75 15.625Z" fill="white"/>
<path fill-rule="evenodd" clip-rule="evenodd" d="M5.58211 13.3627C3.375 17.3735 3.375 22.624 3.375 33.125V41.875C3.375 52.3759 3.375 57.6266 5.58211 61.6372C7.52355 65.1653 10.6214 68.0338 14.4317 69.8313C18.7634 71.875 24.434 71.875 35.775 71.875H45.225C56.566 71.875 62.2367 71.875 66.5682 69.8313C70.3785 68.0338 73.4765 65.1653 75.4178 61.6372C77.625 57.6266 77.625 52.3759 77.625 41.875V33.125C77.625 22.624 77.625 17.3735 75.4178 13.3627C73.4765 9.83463 70.3785 6.96625 66.5682 5.16862C62.2367 3.125 56.566 3.125 45.225 3.125H35.775C24.434 3.125 18.7634 3.125 14.4317 5.16862C10.6214 6.96625 7.52355 9.83463 5.58211 13.3627ZM45.225 9.375H35.775C29.9931 9.375 26.0626 9.37987 23.0245 9.60969C20.0652 9.83356 18.5518 10.2393 17.4961 10.7374C14.9559 11.9358 12.8907 13.8481 11.5964 16.2001C11.0585 17.1776 10.6202 18.5789 10.3785 21.319C10.1303 24.132 10.125 27.7714 10.125 33.125V41.875C10.125 47.2287 10.1303 50.8678 10.3785 53.6809C10.6202 56.4212 11.0585 57.8225 11.5964 58.8C12.8907 61.1519 14.9559 63.0641 17.4961 64.2625C18.5518 64.7606 20.0652 65.1666 23.0245 65.3903C26.0626 65.62 29.9931 65.625 35.775 65.625H45.225C51.007 65.625 54.9372 65.62 57.9754 65.3903C60.935 65.1666 62.4483 64.7606 63.504 64.2625C66.044 63.0641 68.1092 61.1519 69.4035 58.8C69.9415 57.8225 70.3799 56.4212 70.6215 53.6809C70.8696 50.8678 70.875 47.2287 70.875 41.875V33.125C70.875 27.7714 70.8696 24.132 70.6215 21.319C70.3799 18.5789 69.9415 17.1776 69.4035 16.2001C68.1092 13.8481 66.044 11.9358 63.504 10.7374C62.4483 10.2393 60.935 9.83356 57.9754 9.60969C54.9372 9.37987 51.007 9.375 45.225 9.375Z" fill="white"/>
</svg>
