<svg width="72" height="73" viewBox="0 0 72 73" fill="none" xmlns="http://www.w3.org/2000/svg">
<path d="M19.5 24.3334C21.9853 24.3334 24 22.2907 24 19.7709C24 17.2511 21.9853 15.2084 19.5 15.2084C17.0147 15.2084 15 17.2511 15 19.7709C15 22.2907 17.0147 24.3334 19.5 24.3334Z" fill="white"/>
<path d="M15 30.4167C15 28.7368 16.3432 27.375 18 27.375H21C22.6568 27.375 24 28.7368 24 30.4167V54.75C24 56.4299 22.6568 57.7917 21 57.7917H18C16.3432 57.7917 15 56.4299 15 54.75V30.4167Z" fill="white"/>
<path d="M33 57.7917H36C37.6569 57.7917 39 56.4299 39 54.75V41.0625C39 36.5 48 33.4583 48 39.5417V54.7512C48 56.4311 49.3431 57.7917 51 57.7917H54C55.6569 57.7917 57 56.4299 57 54.75V36.5C57 30.4167 52.5 27.375 46.5 27.375C40.5 27.375 39 31.9375 39 31.9375V30.4167C39 28.7368 37.6569 27.375 36 27.375H33C31.3431 27.375 30 28.7368 30 30.4167V54.75C30 56.4299 31.3431 57.7917 33 57.7917Z" fill="white"/>
<path fill-rule="evenodd" clip-rule="evenodd" d="M60 3.04163C64.9707 3.04163 69 7.12704 69 12.1666V60.8333C69 65.873 64.9707 69.9583 60 69.9583H12C7.02945 69.9583 3 65.873 3 60.8333V12.1666C3 7.12704 7.02945 3.04163 12 3.04163H60ZM60 9.12496C61.6569 9.12496 63 10.4868 63 12.1666V60.8333C63 62.5132 61.6569 63.875 60 63.875H12C10.3432 63.875 9 62.5132 9 60.8333V12.1666C9 10.4868 10.3432 9.12496 12 9.12496H60Z" fill="white"/>
</svg>
